<?xml version="1.0" encoding="UTF-8" standalone="no"?>
<!DOCTYPE svg PUBLIC "-//W3C//DTD SVG 1.1//EN" "http://www.w3.org/Graphics/SVG/1.1/DTD/svg11.dtd">
<svg xmlns="http://www.w3.org/2000/svg" version="1.1" viewBox="0.00 0.00 802.00 843.00" width="802.00" height="843.00">
<g stroke-width="2.00" fill="none" stroke-linecap="butt">
<path stroke="#b31b22" vector-effect="non-scaling-stroke" d="
  M 433.57 77.20
  Q 429.51 86.67 425.56 95.94
  C 419.41 110.35 411.45 126.81 405.35 138.36
  Q 393.12 161.54 378.57 190.56
  Q 328.92 289.56 294.13 357.54
  Q 291.88 361.92 289.84 366.18
  Q 287.10 371.87 285.58 374.82
  Q 261.83 420.93 248.61 446.81
  C 243.85 456.13 236.69 465.96 232.12 476.39
  Q 229.73 481.82 224.23 485.22
  Q 223.75 485.52 222.94 485.28"
/>
<path stroke="#b31b22" vector-effect="non-scaling-stroke" d="
  M 530.23 528.50
  Q 528.19 528.33 526.69 529.06
  A 1.30 1.30 0.0 0 1 524.99 528.51
  C 523.27 525.35 522.08 522.05 521.67 518.59
  Q 519.83 503.02 516.04 484.18
  C 514.72 477.64 514.42 470.11 513.28 464.48
  C 509.40 445.35 506.58 433.24 503.77 415.05
  C 500.66 394.89 496.02 374.23 492.64 354.54
  Q 478.46 272.00 468.50 216.76
  Q 467.91 213.50 466.36 201.18
  C 465.37 193.27 466.36 186.64 467.80 178.76
  Q 468.46 175.19 467.70 171.35"
/>
<path stroke="#b31b22" vector-effect="non-scaling-stroke" d="
  M 618.59 635.39
  Q 619.89 634.26 620.80 632.58
  C 622.42 629.60 620.84 625.18 619.99 622.01
  Q 615.93 606.92 610.07 584.47
  Q 604.72 564.00 590.78 503.59
  Q 587.09 487.59 584.14 478.47
  Q 580.48 467.20 576.31 453.70
  Q 572.40 441.04 567.48 417.76
  C 565.73 409.44 563.10 402.66 560.30 394.67
  C 558.98 390.91 558.76 388.48 557.97 384.79
  C 557.50 382.53 555.75 381.63 554.68 379.67
  Q 554.10 378.60 553.04 378.51"
/>
<path stroke="#b31b22" vector-effect="non-scaling-stroke" d="
  M 407.37 552.58
  Q 406.15 555.91 408.78 559.07
  C 410.57 561.23 414.39 563.27 416.50 564.76
  Q 460.76 596.13 514.09 633.17
  Q 551.88 659.42 567.65 669.62
  Q 641.52 717.43 646.00 720.27
  Q 651.83 723.97 665.81 734.19
  C 678.88 743.76 692.44 750.80 705.87 759.65
  C 715.77 766.19 726.90 773.57 738.05 779.62
  Q 760.35 791.71 782.35 804.12
  Q 782.54 804.23 790.30 808.25
  Q 792.21 809.24 794.29 807.87"
/>
<path stroke="#b31b22" vector-effect="non-scaling-stroke" d="
  M 200.90 437.10
  A 1.15 1.15 0.0 0 0 198.94 437.16
  Q 198.87 437.27 186.47 459.32
  C 179.17 472.31 174.10 486.36 166.90 499.43
  C 161.17 509.84 156.86 519.76 151.70 530.36
  Q 148.47 537.00 144.20 547.77
  Q 133.74 574.18 120.72 600.72
  Q 110.69 621.16 108.84 625.86
  Q 100.55 646.90 96.80 655.54
  Q 93.12 664.04 83.20 684.46
  C 81.29 688.39 79.26 694.06 77.17 698.46
  Q 64.17 725.87 54.85 747.11
  Q 50.54 756.92 46.46 769.29
  C 43.15 779.34 38.18 787.41 32.83 798.04
  A 1.43 1.36 -64.6 0 0 33.46 799.95
  Q 33.78 800.10 34.75 799.96
  C 39.96 799.20 43.27 797.95 47.86 795.38
  C 60.08 788.54 72.37 783.65 85.24 778.22
  Q 102.51 770.93 115.42 760.66
  Q 117.27 759.19 118.04 756.51
  Q 129.43 717.00 139.00 679.76
  Q 140.01 675.85 144.48 660.81
  C 147.65 650.13 149.20 640.51 151.88 630.16
  Q 153.05 625.66 162.09 592.62
  Q 173.16 552.12 186.99 495.01
  Q 188.16 490.19 193.85 473.14
  C 196.00 466.71 198.11 459.33 199.41 454.17
  Q 201.35 446.43 201.00 437.52
  Q 200.99 437.25 200.90 437.10"
/>
</g>
<path fill="#cc1e27" d="
  M 433.57 77.20
  Q 429.51 86.67 425.56 95.94
  C 419.41 110.35 411.45 126.81 405.35 138.36
  Q 393.12 161.54 378.57 190.56
  Q 328.92 289.56 294.13 357.54
  Q 291.88 361.92 289.84 366.18
  Q 287.10 371.87 285.58 374.82
  Q 261.83 420.93 248.61 446.81
  C 243.85 456.13 236.69 465.96 232.12 476.39
  Q 229.73 481.82 224.23 485.22
  Q 223.75 485.52 222.94 485.28
  Q 225.89 465.08 229.76 445.01
  C 236.16 411.91 240.94 384.12 245.46 349.75
  Q 246.48 342.07 251.32 330.81
  C 256.61 318.52 263.56 305.52 269.10 293.93
  C 293.87 242.05 312.60 201.23 336.41 151.34
  Q 348.88 125.22 361.24 98.05
  Q 392.14 30.16 399.43 13.80
  A 0.66 0.66 0.0 0 1 400.56 13.66
  Q 400.88 14.07 401.23 14.87
  Q 410.21 35.59 419.66 54.70
  Q 422.37 60.19 426.24 66.14
  Q 429.96 71.85 433.57 77.20
  Z"
/>
<path fill="#9a171d" d="
  M 222.94 485.28
  Q 223.75 485.52 224.23 485.22
  Q 229.73 481.82 232.12 476.39
  C 236.69 465.96 243.85 456.13 248.61 446.81
  Q 261.83 420.93 285.58 374.82
  Q 287.10 371.87 289.84 366.18
  Q 291.88 361.92 294.13 357.54
  Q 328.92 289.56 378.57 190.56
  Q 393.12 161.54 405.35 138.36
  C 411.45 126.81 419.41 110.35 425.56 95.94
  Q 429.51 86.67 433.57 77.20
  Q 438.76 83.05 443.64 93.08
  Q 450.18 106.52 457.70 124.09
  Q 460.03 129.52 460.30 133.25
  Q 460.43 134.92 458.78 138.29
  C 452.65 150.80 447.09 163.09 440.43 175.77
  C 428.77 197.97 411.71 232.21 395.80 262.78
  Q 349.94 350.88 305.44 436.24
  Q 251.16 540.34 195.08 642.07
  Q 194.86 642.46 194.52 642.65
  A 0.32 0.31 81.0 0 1 194.06 642.31
  L 222.94 485.28
  Z"
/>
<path fill="#cc1e27" d="
  M 530.23 528.50
  Q 528.19 528.33 526.69 529.06
  A 1.30 1.30 0.0 0 1 524.99 528.51
  C 523.27 525.35 522.08 522.05 521.67 518.59
  Q 519.83 503.02 516.04 484.18
  C 514.72 477.64 514.42 470.11 513.28 464.48
  C 509.40 445.35 506.58 433.24 503.77 415.05
  C 500.66 394.89 496.02 374.23 492.64 354.54
  Q 478.46 272.00 468.50 216.76
  Q 467.91 213.50 466.36 201.18
  C 465.37 193.27 466.36 186.64 467.80 178.76
  Q 468.46 175.19 467.70 171.35
  Q 470.79 162.25 476.09 153.55
  Q 476.37 153.08 477.08 153.36
  Q 477.47 153.51 477.69 154.06
  Q 482.31 165.14 496.34 195.24
  C 504.13 211.95 511.38 229.32 519.79 247.48
  C 521.74 251.70 522.50 257.14 522.62 262.62
  Q 522.93 276.75 523.04 291.25
  Q 523.20 309.68 523.59 320.26
  C 524.12 334.65 524.07 344.86 524.62 358.91
  Q 525.70 386.58 526.79 422.25
  Q 527.19 435.60 528.70 475.02
  Q 529.19 487.77 529.35 492.24
  Q 530.04 510.32 530.23 528.50
  Z"
/>
<path fill="#9a171d" d="
  M 467.70 171.35
  Q 468.46 175.19 467.80 178.76
  C 466.36 186.64 465.37 193.27 466.36 201.18
  Q 467.91 213.50 468.50 216.76
  Q 478.46 272.00 492.64 354.54
  C 496.02 374.23 500.66 394.89 503.77 415.05
  C 506.58 433.24 509.40 445.35 513.28 464.48
  C 514.42 470.11 514.72 477.64 516.04 484.18
  Q 519.83 503.02 521.67 518.59
  C 522.08 522.05 523.27 525.35 524.99 528.51
  A 1.30 1.30 0.0 0 0 526.69 529.06
  Q 528.19 528.33 530.23 528.50
  L 531.12 553.40
  A 0.22 0.22 0.0 0 1 530.71 553.51
  C 510.85 515.54 494.33 484.11 477.46 450.16
  C 466.55 428.21 458.69 413.47 448.33 393.44
  Q 440.98 379.24 416.96 327.50
  Q 415.69 324.74 414.16 319.07
  Q 411.68 309.87 415.01 300.97
  Q 417.25 294.97 450.20 211.20
  Q 453.44 202.96 467.70 171.35
  Z"
/>
<path fill="#9a171d" d="
  M 618.59 635.39
  Q 619.89 634.26 620.80 632.58
  C 622.42 629.60 620.84 625.18 619.99 622.01
  Q 615.93 606.92 610.07 584.47
  Q 604.72 564.00 590.78 503.59
  Q 587.09 487.59 584.14 478.47
  Q 580.48 467.20 576.31 453.70
  Q 572.40 441.04 567.48 417.76
  C 565.73 409.44 563.10 402.66 560.30 394.67
  C 558.98 390.91 558.76 388.48 557.97 384.79
  C 557.50 382.53 555.75 381.63 554.68 379.67
  Q 554.10 378.60 553.04 378.51
  Q 553.06 372.09 552.81 368.75
  Q 551.37 349.10 549.44 324.30
  A 0.44 0.44 0.0 0 1 550.15 323.91
  Q 550.49 324.18 550.72 324.74
  Q 564.78 359.45 579.02 390.31
  Q 589.73 413.53 610.42 459.65
  Q 612.81 464.99 613.65 466.86
  C 636.20 517.24 664.29 572.89 684.94 616.26
  Q 701.58 651.20 705.22 658.31
  Q 710.29 668.21 716.89 682.38
  Q 717.25 683.15 717.06 683.70
  A 0.60 0.60 0.0 0 1 716.22 684.03
  L 618.59 635.39
  Z"
/>
<path fill="#9a171d" d="
  M 225.37 364.99
  A 0.47 0.46 3.0 0 1 225.90 365.57
  Q 216.45 398.49 205.87 440.57
  Q 204.68 445.31 199.55 468.00
  C 193.19 496.19 188.28 521.16 181.61 553.79
  C 180.23 560.51 179.23 568.12 177.93 574.30
  Q 168.83 617.42 160.88 664.64
  Q 160.67 665.86 160.69 666.67
  A 0.39 0.39 0.0 0 0 161.24 667.01
  Q 186.79 655.45 215.52 643.29
  Q 222.97 640.14 231.64 637.12
  C 242.62 633.28 251.52 628.87 261.04 629.98
  A 6.67 6.59 -32.1 0 1 262.52 630.31
  Q 276.35 634.97 287.62 638.40
  Q 304.70 643.61 321.37 650.61
  C 328.92 653.78 324.11 661.20 319.25 663.90
  C 300.28 674.42 288.29 681.47 270.80 689.97
  Q 270.72 690.01 216.48 716.80
  C 173.06 738.25 130.57 760.38 90.44 781.17
  Q 74.07 789.64 50.73 799.22
  Q 29.50 807.93 5.42 812.61
  A 0.45 0.44 -82.2 0 1 4.94 811.97
  Q 28.49 764.40 29.40 763.14
  Q 29.47 763.05 57.95 704.87
  C 78.07 663.76 91.15 638.39 117.08 587.09
  Q 122.53 576.30 124.76 570.98
  C 128.85 561.21 133.60 551.73 136.84 541.44
  Q 139.27 533.72 142.23 527.97
  Q 163.71 486.26 184.56 443.41
  C 187.50 437.37 191.99 429.35 194.65 423.89
  Q 209.34 393.64 224.87 365.39
  Q 225.06 365.04 225.37 364.99
  Z
  M 200.90 437.10
  A 1.15 1.15 0.0 0 0 198.94 437.16
  Q 198.87 437.27 186.47 459.32
  C 179.17 472.31 174.10 486.36 166.90 499.43
  C 161.17 509.84 156.86 519.76 151.70 530.36
  Q 148.47 537.00 144.20 547.77
  Q 133.74 574.18 120.72 600.72
  Q 110.69 621.16 108.84 625.86
  Q 100.55 646.90 96.80 655.54
  Q 93.12 664.04 83.20 684.46
  C 81.29 688.39 79.26 694.06 77.17 698.46
  Q 64.17 725.87 54.85 747.11
  Q 50.54 756.92 46.46 769.29
  C 43.15 779.34 38.18 787.41 32.83 798.04
  A 1.43 1.36 -64.6 0 0 33.46 799.95
  Q 33.78 800.10 34.75 799.96
  C 39.96 799.20 43.27 797.95 47.86 795.38
  C 60.08 788.54 72.37 783.65 85.24 778.22
  Q 102.51 770.93 115.42 760.66
  Q 117.27 759.19 118.04 756.51
  Q 129.43 717.00 139.00 679.76
  Q 140.01 675.85 144.48 660.81
  C 147.65 650.13 149.20 640.51 151.88 630.16
  Q 153.05 625.66 162.09 592.62
  Q 173.16 552.12 186.99 495.01
  Q 188.16 490.19 193.85 473.14
  C 196.00 466.71 198.11 459.33 199.41 454.17
  Q 201.35 446.43 201.00 437.52
  Q 200.99 437.25 200.90 437.10
  Z"
/>
<path fill="#cc1e27" d="
  M 618.59 635.39
  Q 595.42 624.87 573.10 612.94
  C 568.58 610.53 567.07 607.16 566.62 601.89
  C 565.49 588.72 564.06 575.97 563.16 562.65
  Q 561.78 542.33 560.40 518.39
  Q 558.26 481.20 555.74 442.82
  C 554.63 425.86 554.08 409.57 553.13 391.49
  C 552.91 387.33 553.05 382.85 553.04 378.51
  Q 554.10 378.60 554.68 379.67
  C 555.75 381.63 557.50 382.53 557.97 384.79
  C 558.76 388.48 558.98 390.91 560.30 394.67
  C 563.10 402.66 565.73 409.44 567.48 417.76
  Q 572.40 441.04 576.31 453.70
  Q 580.48 467.20 584.14 478.47
  Q 587.09 487.59 590.78 503.59
  Q 604.72 564.00 610.07 584.47
  Q 615.93 606.92 619.99 622.01
  C 620.84 625.18 622.42 629.60 620.80 632.58
  Q 619.89 634.26 618.59 635.39
  Z"
/>
<path fill="#cc1e27" d="
  M 200.90 437.10
  Q 200.99 437.25 201.00 437.52
  Q 201.35 446.43 199.41 454.17
  C 198.11 459.33 196.00 466.71 193.85 473.14
  Q 188.16 490.19 186.99 495.01
  Q 173.16 552.12 162.09 592.62
  Q 153.05 625.66 151.88 630.16
  C 149.20 640.51 147.65 650.13 144.48 660.81
  Q 140.01 675.85 139.00 679.76
  Q 129.43 717.00 118.04 756.51
  Q 117.27 759.19 115.42 760.66
  Q 102.51 770.93 85.24 778.22
  C 72.37 783.65 60.08 788.54 47.86 795.38
  C 43.27 797.95 39.96 799.20 34.75 799.96
  Q 33.78 800.10 33.46 799.95
  A 1.43 1.36 -64.6 0 1 32.83 798.04
  C 38.18 787.41 43.15 779.34 46.46 769.29
  Q 50.54 756.92 54.85 747.11
  Q 64.17 725.87 77.17 698.46
  C 79.26 694.06 81.29 688.39 83.20 684.46
  Q 93.12 664.04 96.80 655.54
  Q 100.55 646.90 108.84 625.86
  Q 110.69 621.16 120.72 600.72
  Q 133.74 574.18 144.20 547.77
  Q 148.47 537.00 151.70 530.36
  C 156.86 519.76 161.17 509.84 166.90 499.43
  C 174.10 486.36 179.17 472.31 186.47 459.32
  Q 198.87 437.27 198.94 437.16
  A 1.15 1.15 0.0 0 1 200.90 437.10
  Z"
/>
<path fill="#9a171d" d="
  M 407.37 552.58
  Q 406.15 555.91 408.78 559.07
  C 410.57 561.23 414.39 563.27 416.50 564.76
  Q 460.76 596.13 514.09 633.17
  Q 551.88 659.42 567.65 669.62
  Q 641.52 717.43 646.00 720.27
  Q 651.83 723.97 665.81 734.19
  C 678.88 743.76 692.44 750.80 705.87 759.65
  C 715.77 766.19 726.90 773.57 738.05 779.62
  Q 760.35 791.71 782.35 804.12
  Q 782.54 804.23 790.30 808.25
  Q 792.21 809.24 794.29 807.87
  L 795.33 814.14
  A 0.29 0.29 0.0 0 1 794.93 814.45
  C 754.68 796.47 714.46 779.17 676.19 760.85
  C 643.88 745.38 626.30 737.42 597.78 722.98
  Q 534.70 691.04 523.26 685.52
  Q 489.81 669.40 486.52 667.68
  C 467.72 657.86 450.52 650.01 432.40 643.52
  Q 420.75 639.34 410.31 634.76
  Q 367.01 615.75 335.24 598.85
  Q 329.23 595.65 317.65 589.63
  C 305.11 583.12 290.91 579.94 276.39 576.90
  Q 274.96 576.60 271.43 575.14
  C 267.54 573.52 265.28 568.74 265.42 565.03
  Q 265.83 553.60 274.50 544.62
  A 4.32 4.28 -79.4 0 1 275.89 543.66
  Q 280.10 541.87 283.62 541.41
  Q 299.15 539.37 315.25 539.16
  Q 334.60 538.91 354.03 540.05
  C 361.20 540.47 369.81 541.70 376.06 542.48
  Q 393.17 544.62 407.37 552.58
  Z"
/>
<path fill="#cc1e27" d="
  M 794.29 807.87
  Q 792.21 809.24 790.30 808.25
  Q 782.54 804.23 782.35 804.12
  Q 760.35 791.71 738.05 779.62
  C 726.90 773.57 715.77 766.19 705.87 759.65
  C 692.44 750.80 678.88 743.76 665.81 734.19
  Q 651.83 723.97 646.00 720.27
  Q 641.52 717.43 567.65 669.62
  Q 551.88 659.42 514.09 633.17
  Q 460.76 596.13 416.50 564.76
  C 414.39 563.27 410.57 561.23 408.78 559.07
  Q 406.15 555.91 407.37 552.58
  Q 418.60 557.43 423.51 559.74
  Q 496.44 594.19 517.33 604.47
  Q 619.51 654.75 690.78 689.36
  Q 708.28 697.85 733.67 710.80
  Q 742.80 715.45 776.41 732.55
  Q 779.41 734.07 780.08 737.18
  Q 787.62 772.52 794.29 807.87
  Z"
/>
</svg>
