<?xml version="1.0" encoding="UTF-8" standalone="no"?>
<!DOCTYPE svg PUBLIC "-//W3C//DTD SVG 1.1//EN" "http://www.w3.org/Graphics/SVG/1.1/DTD/svg11.dtd">
<svg xmlns="http://www.w3.org/2000/svg" version="1.1" viewBox="0.00 0.00 1672.00 435.00" width="1672.00" height="435.00">
<g stroke-width="2.00" fill="none" stroke-linecap="butt">
<path stroke="#ce1f24" vector-effect="non-scaling-stroke" d="
  M 252.40 43.55
  L 249.55 52.65
  A 9.68 9.30 68.6 0 1 248.92 54.17
  Q 247.10 57.62 245.18 61.12
  Q 237.54 75.08 200.16 146.35
  C 181.36 182.19 164.09 214.27 145.05 249.79
  Q 142.22 255.09 138.66 257.07"
/>
<path stroke="#ce1f24" vector-effect="non-scaling-stroke" d="
  M 277.92 89.34
  Q 271.62 91.52 272.07 98.50
  Q 272.86 110.55 273.11 116.84
  C 273.90 136.67 276.82 155.87 281.19 175.47
  C 285.57 195.10 287.82 207.13 290.67 226.01
  C 292.68 239.25 295.67 253.26 298.15 263.79
  C 298.47 265.14 299.21 267.10 299.70 268.72
  A 3.30 3.01 38.0 0 1 299.85 269.61
  Q 300.00 273.93 302.23 277.52"
/>
<path stroke="#ce1f24" vector-effect="non-scaling-stroke" d="
  M 345.77 329.34
  L 348.25 321.62
  A 4.77 4.72 -44.0 0 0 348.31 318.89
  Q 344.59 305.41 339.82 286.93
  Q 338.28 280.94 331.05 257.97
  C 328.93 251.26 326.55 240.05 323.67 232.06
  Q 319.91 221.66 316.29 212.48
  Q 316.03 211.82 315.34 211.92
  Q 315.14 211.95 315.17 212.29"
/>
<path stroke="#ce1f24" vector-effect="non-scaling-stroke" d="
  M 248.41 291.94
  Q 246.51 292.74 245.86 294.39
  A 1.97 1.95 28.6 0 0 246.55 296.69
  C 268.94 312.65 290.12 325.61 314.19 341.95
  C 325.01 349.29 333.13 354.19 346.95 362.32
  C 361.09 370.64 372.08 378.77 385.03 389.08
  C 387.14 390.76 389.64 392.29 391.44 393.29
  C 406.61 401.76 420.80 409.32 435.19 419.16
  A 0.93 0.92 24.1 0 0 436.61 418.62
  Q 436.87 417.59 436.58 416.11
  Q 434.87 407.42 434.61 401.57
  Q 434.44 397.85 431.20 384.22"
/>
<path stroke="#ce1f24" vector-effect="non-scaling-stroke" d="
  M 116.13 251.48
  Q 115.12 252.38 114.23 254.21
  C 109.42 264.11 105.19 274.89 100.53 284.61
  Q 92.27 301.82 86.56 315.01
  C 81.87 325.82 75.39 337.33 70.20 349.19
  Q 67.05 356.38 53.91 382.02
  Q 47.55 394.41 44.83 408.19
  Q 44.62 409.23 44.86 410.63
  A 0.97 0.96 78.0 0 0 46.04 411.40
  Q 60.46 407.77 73.66 400.16
  C 79.67 396.69 84.65 391.43 87.11 384.83
  Q 88.76 380.40 89.91 376.18
  C 94.15 360.58 98.96 339.41 104.46 321.63
  Q 109.14 306.50 110.97 299.48
  Q 116.31 278.98 117.09 257.72
  Q 117.20 254.60 116.90 251.77
  A 0.46 0.46 0.0 0 0 116.13 251.48"
/>
</g>
<path fill="#e62329" d="
  M 252.40 43.55
  L 249.55 52.65
  A 9.68 9.30 68.6 0 1 248.92 54.17
  Q 247.10 57.62 245.18 61.12
  Q 237.54 75.08 200.16 146.35
  C 181.36 182.19 164.09 214.27 145.05 249.79
  Q 142.22 255.09 138.66 257.07
  Q 141.88 236.54 145.19 216.56
  C 146.78 206.93 147.36 196.79 148.41 189.19
  C 149.74 179.59 156.23 170.70 160.44 161.98
  Q 186.59 107.86 193.36 93.37
  C 204.71 69.13 212.63 53.40 222.35 32.18
  Q 226.27 23.61 234.00 7.42
  A 0.72 0.71 45.3 0 1 235.29 7.43
  L 252.40 43.55
  Z"
/>
<path fill="#b61a1e" d="
  M 252.40 43.55
  L 265.89 70.64
  A 2.91 2.90 45.7 0 1 265.86 73.30
  Q 223.33 154.13 195.63 205.42
  Q 155.94 278.91 129.20 327.81
  A 0.65 0.65 0.0 0 1 128.03 327.76
  Q 127.98 327.66 128.03 327.25
  Q 132.71 291.68 138.66 257.07
  Q 142.22 255.09 145.05 249.79
  C 164.09 214.27 181.36 182.19 200.16 146.35
  Q 237.54 75.08 245.18 61.12
  Q 247.10 57.62 248.92 54.17
  A 9.68 9.30 68.6 0 0 249.55 52.65
  L 252.40 43.55
  Z"
/>
<path fill="#b61a1e" d="
  M 277.92 89.34
  Q 271.62 91.52 272.07 98.50
  Q 272.86 110.55 273.11 116.84
  C 273.90 136.67 276.82 155.87 281.19 175.47
  C 285.57 195.10 287.82 207.13 290.67 226.01
  C 292.68 239.25 295.67 253.26 298.15 263.79
  C 298.47 265.14 299.21 267.10 299.70 268.72
  A 3.30 3.01 38.0 0 1 299.85 269.61
  Q 300.00 273.93 302.23 277.52
  L 302.73 292.90
  A 0.44 0.44 0.0 0 1 302.05 293.29
  Q 301.57 292.99 301.31 292.45
  C 288.98 267.17 277.97 246.34 266.73 222.25
  Q 241.21 167.49 240.35 165.64
  Q 239.48 163.78 240.37 161.62
  Q 255.20 125.47 273.46 81.53
  A 0.48 0.48 0.0 0 1 274.34 81.52
  L 277.92 89.34
  Z"
/>
<path fill="#e62329" d="
  M 277.92 89.34
  Q 288.02 112.11 299.33 133.94
  C 300.75 136.66 301.08 140.85 301.10 144.44
  Q 301.45 209.42 301.74 220.50
  Q 302.01 230.40 302.09 248.08
  C 302.12 254.89 302.70 267.60 302.23 277.52
  Q 300.00 273.93 299.85 269.61
  A 3.30 3.01 38.0 0 0 299.70 268.72
  C 299.21 267.10 298.47 265.14 298.15 263.79
  C 295.67 253.26 292.68 239.25 290.67 226.01
  C 287.82 207.13 285.57 195.10 281.19 175.47
  C 276.82 155.87 273.90 136.67 273.11 116.84
  Q 272.86 110.55 272.07 98.50
  Q 271.62 91.52 277.92 89.34
  Z"
/>
<path fill="#181818" d="
  M 680.05 307.32
  A 0.54 0.53 0.5 0 1 679.51 307.84
  L 660.23 307.84
  A 1.57 1.57 0.0 0 1 658.78 306.87
  L 639.31 260.61
  A 1.49 1.49 0.0 0 0 637.95 259.70
  L 563.12 259.00
  A 3.10 3.10 0.0 0 0 560.23 260.91
  L 541.48 306.11
  A 2.09 2.09 0.0 0 1 539.59 307.41
  L 520.12 307.86
  A 1.26 1.26 0.0 0 1 518.94 306.08
  Q 526.85 288.68 531.77 276.66
  Q 538.37 260.50 544.21 247.11
  Q 582.15 160.21 586.54 149.79
  Q 596.23 126.75 600.48 115.87
  A 0.70 0.69 -61.3 0 1 601.53 115.56
  Q 602.03 115.93 602.48 117.04
  C 616.84 152.03 625.03 171.50 629.20 182.73
  Q 630.81 187.07 631.76 189.38
  Q 654.67 244.58 673.35 289.84
  Q 678.48 302.26 679.77 305.92
  Q 680.06 306.76 680.05 307.32
  Z
  M 601.68 166.71
  A 1.09 1.09 0.0 0 0 599.66 166.70
  L 569.62 239.14
  A 1.09 1.09 0.0 0 0 570.62 240.64
  L 630.20 241.19
  A 1.09 1.09 0.0 0 0 631.22 239.70
  L 601.68 166.71
  Z"
/>
<path fill="#181818" d="
  M 1350.92 185.04
  L 1300.53 313.98
  A 0.96 0.96 0.0 0 1 1298.74 313.99
  L 1247.26 186.78
  A 0.70 0.70 0.0 0 0 1245.93 186.90
  Q 1235.20 236.61 1220.56 304.28
  Q 1220.13 306.26 1219.35 307.23
  A 1.10 1.10 0.0 0 1 1218.50 307.63
  L 1200.82 307.63
  A 0.86 0.86 0.0 0 1 1199.98 306.59
  Q 1211.73 252.79 1215.95 232.83
  Q 1222.26 202.98 1228.03 177.81
  Q 1240.00 125.64 1240.63 122.88
  Q 1240.79 122.22 1240.95 122.04
  A 1.34 1.34 0.0 0 1 1243.19 122.44
  L 1299.42 261.38
  A 0.55 0.55 0.0 0 0 1300.44 261.38
  L 1355.93 121.12
  A 0.93 0.93 0.0 0 1 1357.62 121.05
  Q 1357.64 121.11 1358.20 123.56
  C 1368.63 169.93 1374.31 196.67 1378.45 213.14
  Q 1378.75 214.35 1380.56 222.99
  Q 1394.56 289.88 1398.27 306.88
  A 0.79 0.79 0.0 0 1 1397.50 307.83
  L 1380.11 307.83
  A 1.87 1.86 -15.2 0 1 1378.50 306.91
  Q 1377.70 305.54 1377.26 303.49
  Q 1364.74 245.66 1363.17 238.13
  C 1362.02 232.57 1360.24 221.17 1358.46 213.55
  Q 1353.84 193.78 1352.41 187.83
  Q 1351.99 186.06 1351.35 185.00
  A 0.24 0.24 0.0 0 0 1350.92 185.04
  Z"
/>
<path fill="#181818" d="
  M 1560.42 269.59
  A 0.42 0.42 0.0 0 1 1560.98 269.71
  Q 1580.87 297.56 1616.01 291.67
  C 1624.21 290.29 1634.26 285.22 1639.20 278.03
  C 1646.46 267.47 1645.48 253.63 1637.78 243.23
  Q 1635.10 239.61 1628.98 235.72
  Q 1617.18 228.21 1605.79 223.48
  Q 1590.66 217.21 1589.17 216.55
  Q 1576.12 210.80 1565.28 202.22
  Q 1557.16 195.79 1552.70 187.39
  Q 1548.48 179.44 1548.36 168.53
  Q 1548.14 149.85 1561.99 136.32
  Q 1565.24 133.14 1574.40 127.22
  A 8.47 8.26 -69.7 0 1 1576.40 126.27
  Q 1589.10 122.16 1591.33 121.85
  C 1606.80 119.66 1621.75 121.29 1637.16 127.56
  Q 1641.81 129.45 1646.39 133.23
  Q 1655.53 140.77 1656.59 141.66
  A 1.29 1.28 -45.1 0 1 1656.59 143.63
  L 1642.78 155.19
  A 1.13 1.13 0.0 0 1 1641.26 155.12
  C 1625.96 139.73 1602.98 134.22 1583.76 145.72
  C 1577.40 149.52 1572.54 155.75 1570.66 162.40
  C 1565.62 180.24 1585.57 192.55 1599.27 198.11
  Q 1614.74 204.39 1624.28 208.48
  C 1635.07 213.12 1645.43 218.26 1652.95 226.28
  Q 1663.09 237.10 1665.13 252.09
  Q 1666.27 260.42 1665.22 268.28
  C 1662.94 285.47 1651.49 299.22 1635.42 305.89
  Q 1614.30 314.66 1590.48 310.77
  Q 1577.58 308.65 1566.50 302.50
  C 1557.38 297.44 1549.98 288.82 1544.08 280.22
  A 0.97 0.96 57.8 0 1 1544.39 278.84
  L 1560.42 269.59
  Z"
/>
<path fill="#181818" d="
  M 998.35 142.75
  L 941.66 144.06
  A 0.61 0.60 -88.9 0 0 941.08 144.62
  Q 940.99 145.88 940.99 146.50
  Q 940.94 232.15 940.90 239.25
  Q 940.89 241.41 940.81 246.75
  Q 940.79 247.92 940.57 299.76
  Q 940.56 303.43 940.13 306.43
  A 1.03 1.03 0.0 0 1 939.13 307.32
  L 922.08 307.71
  A 0.60 0.59 -1.5 0 1 921.47 307.14
  Q 920.61 283.83 920.72 264.19
  Q 920.75 258.76 920.45 252.35
  C 920.20 247.25 920.69 241.79 920.68 236.55
  C 920.65 223.68 920.55 191.63 920.88 166.24
  Q 921.01 155.76 920.80 145.32
  A 1.33 1.33 0.0 0 0 919.48 144.01
  L 863.94 143.49
  A 1.48 1.48 0.0 0 1 862.47 142.00
  L 862.62 125.75
  A 0.62 0.62 0.0 0 1 863.23 125.14
  C 885.90 124.98 906.53 125.21 930.26 124.75
  C 951.92 124.33 975.67 125.31 997.41 125.01
  A 0.95 0.95 0.0 0 1 998.38 125.94
  L 998.76 142.32
  A 0.42 0.42 0.0 0 1 998.35 142.75
  Z"
/>
<path fill="#181818" d="
  M 1073.66 204.36
  L 1140.92 204.99
  A 0.63 0.62 -90.0 0 1 1141.54 205.62
  L 1141.38 222.42
  A 0.74 0.73 -3.0 0 1 1140.72 223.15
  Q 1133.44 223.85 1125.48 223.60
  C 1108.91 223.09 1091.82 223.35 1077.31 223.35
  Q 1075.84 223.35 1074.29 223.69
  A 1.49 1.48 83.7 0 0 1073.13 225.14
  L 1073.13 286.74
  A 1.64 1.64 0.0 0 0 1074.77 288.38
  L 1148.06 288.38
  A 1.32 1.32 0.0 0 1 1149.38 289.71
  L 1149.22 306.21
  A 1.55 1.54 0.2 0 1 1147.67 307.74
  L 1053.75 307.74
  A 1.53 1.52 90.0 0 1 1052.23 306.21
  L 1052.23 126.59
  A 0.76 0.76 0.0 0 1 1052.97 125.83
  Q 1098.23 124.40 1143.50 125.50
  Q 1145.64 125.56 1148.35 125.85
  A 0.71 0.70 3.2 0 1 1148.98 126.55
  L 1148.98 143.16
  A 0.65 0.65 0.0 0 1 1148.33 143.81
  L 1074.50 143.81
  A 1.40 1.40 0.0 0 0 1073.10 145.21
  L 1073.10 203.80
  A 0.56 0.56 0.0 0 0 1073.66 204.36
  Z"
/>
<path fill="#181818" d="
  M 839.64 288.21
  A 0.69 0.69 0.0 0 1 840.31 289.06
  Q 838.38 297.34 838.85 306.07
  A 1.43 1.43 0.0 0 1 837.42 307.58
  Q 824.57 307.62 818.92 307.60
  Q 813.91 307.59 811.09 307.80
  C 807.62 308.05 804.40 307.59 800.63 307.59
  C 783.54 307.59 775.31 307.51 760.80 307.82
  Q 751.26 308.02 735.71 307.51
  A 0.95 0.93 -12.4 0 1 734.91 307.01
  Q 734.39 306.01 734.39 304.00
  Q 734.42 194.92 734.34 135.44
  C 734.34 132.73 734.65 129.88 734.90 126.94
  A 1.88 1.88 0.0 0 1 736.77 125.21
  L 753.00 125.21
  A 2.08 2.08 0.0 0 1 755.06 126.99
  Q 755.28 128.57 755.27 130.75
  Q 755.26 134.17 755.23 284.50
  Q 755.23 286.58 755.78 287.80
  A 0.71 0.70 77.5 0 0 756.42 288.21
  L 839.64 288.21
  Z"
/>
<path fill="#181818" d="
  M 1478.02 125.37
  A 0.63 0.63 0.0 0 1 1478.65 126.00
  L 1478.96 303.74
  A 3.83 1.61 89.9 0 1 1477.36 307.58
  L 1460.36 307.60
  A 3.83 1.61 89.9 0 1 1458.74 303.78
  L 1458.43 126.04
  A 0.63 0.63 0.0 0 1 1459.06 125.41
  L 1478.02 125.37
  Z"
/>
<path fill="#b61a1e" d="
  M 345.77 329.34
  L 348.25 321.62
  A 4.77 4.72 -44.0 0 0 348.31 318.89
  Q 344.59 305.41 339.82 286.93
  Q 338.28 280.94 331.05 257.97
  C 328.93 251.26 326.55 240.05 323.67 232.06
  Q 319.91 221.66 316.29 212.48
  Q 316.03 211.82 315.34 211.92
  Q 315.14 211.95 315.17 212.29
  Q 315.07 209.64 314.83 207.01
  Q 312.93 186.46 312.04 177.25
  Q 311.94 176.20 312.09 175.69
  A 0.75 0.75 0.0 0 1 313.49 175.57
  Q 324.79 198.61 334.69 218.47
  C 351.49 252.18 368.63 288.24 385.48 322.76
  Q 390.18 332.37 400.75 355.17
  A 0.26 0.26 0.0 0 1 400.41 355.51
  L 345.77 329.34
  Z"
/>
<path fill="#b61a1e" d="
  M 133.76 208.90
  A 0.71 0.71 0.0 0 1 134.99 209.46
  Q 134.81 210.98 126.11 248.52
  C 118.40 281.78 111.88 316.15 105.41 348.51
  A 0.75 0.75 0.0 0 0 106.44 349.35
  Q 129.58 339.66 155.25 329.49
  C 160.05 327.59 162.63 328.98 168.27 331.10
  Q 187.34 338.26 200.65 343.58
  Q 201.10 343.76 201.31 344.06
  A 0.29 0.29 0.0 0 1 201.20 344.49
  Q 178.53 355.68 157.85 365.41
  Q 96.22 394.38 74.26 404.86
  C 59.65 411.83 44.51 418.18 29.51 425.51
  Q 28.33 426.09 26.75 425.96
  A 0.44 0.44 0.0 0 1 26.39 425.33
  C 42.09 392.96 63.19 349.19 83.52 308.89
  Q 89.30 297.43 94.19 286.97
  Q 97.31 280.29 105.05 265.13
  Q 125.45 225.24 132.19 211.24
  Q 132.80 209.97 133.76 208.90
  Z
  M 116.13 251.48
  Q 115.12 252.38 114.23 254.21
  C 109.42 264.11 105.19 274.89 100.53 284.61
  Q 92.27 301.82 86.56 315.01
  C 81.87 325.82 75.39 337.33 70.20 349.19
  Q 67.05 356.38 53.91 382.02
  Q 47.55 394.41 44.83 408.19
  Q 44.62 409.23 44.86 410.63
  A 0.97 0.96 78.0 0 0 46.04 411.40
  Q 60.46 407.77 73.66 400.16
  C 79.67 396.69 84.65 391.43 87.11 384.83
  Q 88.76 380.40 89.91 376.18
  C 94.15 360.58 98.96 339.41 104.46 321.63
  Q 109.14 306.50 110.97 299.48
  Q 116.31 278.98 117.09 257.72
  Q 117.20 254.60 116.90 251.77
  A 0.46 0.46 0.0 0 0 116.13 251.48
  Z"
/>
<path fill="#e62329" d="
  M 345.77 329.34
  L 322.37 317.80
  A 1.36 1.36 0.0 0 1 321.72 317.12
  Q 320.77 314.92 320.62 311.60
  Q 319.38 284.85 315.17 212.29
  Q 315.14 211.95 315.34 211.92
  Q 316.03 211.82 316.29 212.48
  Q 319.91 221.66 323.67 232.06
  C 326.55 240.05 328.93 251.26 331.05 257.97
  Q 338.28 280.94 339.82 286.93
  Q 344.59 305.41 348.31 318.89
  A 4.77 4.72 -44.0 0 1 348.25 321.62
  L 345.77 329.34
  Z"
/>
<path fill="#e62329" d="
  M 116.13 251.48
  A 0.46 0.46 0.0 0 1 116.90 251.77
  Q 117.20 254.60 117.09 257.72
  Q 116.31 278.98 110.97 299.48
  Q 109.14 306.50 104.46 321.63
  C 98.96 339.41 94.15 360.58 89.91 376.18
  Q 88.76 380.40 87.11 384.83
  C 84.65 391.43 79.67 396.69 73.66 400.16
  Q 60.46 407.77 46.04 411.40
  A 0.97 0.96 78.0 0 1 44.86 410.63
  Q 44.62 409.23 44.83 408.19
  Q 47.55 394.41 53.91 382.02
  Q 67.05 356.38 70.20 349.19
  C 75.39 337.33 81.87 325.82 86.56 315.01
  Q 92.27 301.82 100.53 284.61
  C 105.19 274.89 109.42 264.11 114.23 254.21
  Q 115.12 252.38 116.13 251.48
  Z"
/>
<path fill="#b61a1e" d="
  M 248.41 291.94
  Q 246.51 292.74 245.86 294.39
  A 1.97 1.95 28.6 0 0 246.55 296.69
  C 268.94 312.65 290.12 325.61 314.19 341.95
  C 325.01 349.29 333.13 354.19 346.95 362.32
  C 361.09 370.64 372.08 378.77 385.03 389.08
  C 387.14 390.76 389.64 392.29 391.44 393.29
  C 406.61 401.76 420.80 409.32 435.19 419.16
  A 0.93 0.92 24.1 0 0 436.61 418.62
  Q 436.87 417.59 436.58 416.11
  Q 434.87 407.42 434.61 401.57
  Q 434.44 397.85 431.20 384.22
  Q 433.21 386.62 433.76 387.74
  C 436.31 392.97 436.89 397.83 437.10 404.01
  C 437.29 409.52 439.01 415.38 440.11 421.18
  Q 440.38 422.60 440.24 423.34
  A 0.81 0.81 0.0 0 1 439.11 423.93
  Q 387.57 400.97 333.59 375.85
  C 295.75 358.25 254.66 339.62 213.91 320.38
  C 194.14 311.05 178.86 304.71 162.11 296.62
  A 1.12 1.11 -64.5 0 1 161.59 295.14
  C 164.46 289.00 167.76 283.77 174.76 282.25
  A 0.96 0.66 28.7 0 1 174.95 282.23
  L 228.90 283.17
  A 5.97 5.86 57.8 0 1 231.38 283.76
  L 248.41 291.94
  Z"
/>
<path fill="#e62329" d="
  M 248.41 291.94
  Q 268.20 301.52 287.84 311.28
  Q 301.85 318.25 317.80 325.87
  Q 336.01 334.58 347.71 340.54
  Q 379.44 356.69 431.20 384.22
  Q 434.44 397.85 434.61 401.57
  Q 434.87 407.42 436.58 416.11
  Q 436.87 417.59 436.61 418.62
  A 0.93 0.92 24.1 0 1 435.19 419.16
  C 420.80 409.32 406.61 401.76 391.44 393.29
  C 389.64 392.29 387.14 390.76 385.03 389.08
  C 372.08 378.77 361.09 370.64 346.95 362.32
  C 333.13 354.19 325.01 349.29 314.19 341.95
  C 290.12 325.61 268.94 312.65 246.55 296.69
  A 1.97 1.95 28.6 0 1 245.86 294.39
  Q 246.51 292.74 248.41 291.94
  Z"
/>
</svg>
